<?xml version="1.0" encoding="utf-8"?>
<!-- Generator: Adobe Illustrator 23.0.0, SVG Export Plug-In . SVG Version: 6.00 Build 0)  -->
<svg version="1.1" id="图层_1" xmlns="http://www.w3.org/2000/svg" xmlns:xlink="http://www.w3.org/1999/xlink" x="0px" y="0px"
	 viewBox="0 0 32 32" style="enable-background:new 0 0 32 32;" xml:space="preserve">
<style type="text/css">
	.st0{fill:#666666;}
	.st1{fill:#FFFFFF;}
</style>
<g>
	<rect x="5" y="6.7" class="st0" width="24" height="18"/>
	<path class="st0" d="M28.5,7.2v17h-23v-17H28.5 M29.5,6.2h-25v19h25V6.2L29.5,6.2z"/>
</g>
<rect x="5" y="8" class="st1" width="23" height="16.5"/>
<g>
	<polygon class="st0" points="5.1,24.5 12.6,13.9 20,24.5 	"/>
	<path class="st0" d="M12.6,14.7l6.5,9.3h-13L12.6,14.7 M12.6,13L4.2,25H21L12.6,13L12.6,13z"/>
</g>
<g>
	<polygon class="st0" points="11.2,24.5 19.5,15.7 27.8,24.5 	"/>
	<path class="st0" d="M19.5,16.4l7.2,7.6H12.3L19.5,16.4 M19.5,15L10,25h19L19.5,15L19.5,15z"/>
</g>
<g>
	<circle class="st0" cx="23" cy="12" r="1.5"/>
	<path class="st0" d="M23,11c0.5,0,1,0.4,1,1s-0.5,1-1,1s-1-0.4-1-1S22.5,11,23,11 M23,10c-1.1,0-2,0.9-2,2s0.9,2,2,2s2-0.9,2-2
		S24.1,10,23,10L23,10z"/>
</g>
</svg>
